<?xml version="1.0" standalone="no"?>
<!DOCTYPE svg PUBLIC "-//W3C//DTD SVG 20010904//EN"
 "http://www.w3.org/TR/2001/REC-SVG-20010904/DTD/svg10.dtd">
<svg version="1.0" xmlns="http://www.w3.org/2000/svg"
 width="512.000000pt" height="512.000000pt" viewBox="0 0 512.000000 512.000000"
 preserveAspectRatio="xMidYMid meet">

<g transform="translate(0.000000,512.000000) scale(0.100000,-0.100000)"
fill="#000000" stroke="none">
<path d="M2440 4609 c-525 -54 -1000 -276 -1351 -630 -475 -479 -670 -1152
-538 -1854 100 -530 447 -1032 909 -1315 340 -207 687 -303 1100 -303 346 0
592 56 895 203 517 251 892 693 1069 1258 97 309 109 735 30 1057 -104 421
-357 826 -694 1107 -331 277 -717 440 -1130 477 -129 12 -168 12 -290 0z m285
-849 c604 -103 1028 -583 1052 -1190 21 -526 -344 -1035 -857 -1198 -139 -44
-209 -55 -360 -55 -151 0 -221 11 -360 55 -365 117 -638 380 -790 762 -93 235
-98 550 -14 808 90 276 312 543 564 681 135 75 262 118 415 142 118 19 218 17
350 -5z"/>
</g>
</svg>
