<?xml version="1.0" standalone="no"?>
<!DOCTYPE svg PUBLIC "-//W3C//DTD SVG 20010904//EN"
 "http://www.w3.org/TR/2001/REC-SVG-20010904/DTD/svg10.dtd">
<svg version="1.0" xmlns="http://www.w3.org/2000/svg"
 width="795.891240pt" height="795.918273pt" viewBox="0 0 795.891240 795.918273"
 preserveAspectRatio="xMidYMid meet">
<metadata>
Created by potrace 1.16, written by Peter Selinger 2001-2019
</metadata>
<g transform="translate(-2.119633,797.912615) scale(0.100000,-0.100000)"
fill="#000000" stroke="none">
<path d="M379 7966 c-155 -43 -294 -176 -340 -326 -19 -64 -19 -105 -17 -3665
l3 -3600 36 -75 c44 -91 104 -161 182 -211 117 -75 -238 -69 3764 -69 3185 0
3603 2 3641 15 74 26 123 55 175 103 65 61 102 117 132 197 l25 66 -2 3612 -3
3613 -39 79 c-63 127 -172 219 -311 260 -44 13 -488 15 -3625 14 -2851 -1
-3584 -3 -3621 -13z m3822 -1427 c488 -39 960 -231 1374 -558 106 -83 307
-284 396 -394 72 -89 219 -299 219 -312 0 -3 11 -22 24 -43 26 -41 101 -189
134 -262 237 -529 268 -1206 82 -1762 -69 -206 -172 -415 -297 -606 -386 -586
-965 -978 -1648 -1113 -199 -40 -575 -51 -800 -24 -488 57 -962 258 -1322 558
-585 489 -913 1193 -913 1961 0 479 127 932 373 1326 211 338 509 632 852 837
358 215 756 348 1160 388 171 17 207 17 366 4z"/>
<path d="M3835 5479 c-245 -36 -411 -90 -587 -191 -308 -175 -560 -484 -673
-822 -99 -299 -98 -652 2 -946 94 -278 281 -547 500 -721 157 -125 367 -228
579 -285 85 -22 127 -27 291 -31 124 -4 220 -1 273 6 75 11 257 59 305 81 260
116 396 205 539 354 215 225 350 485 417 806 18 85 19 373 1 460 -8 36 -18 88
-24 115 -17 84 -67 225 -113 320 -148 308 -399 560 -705 708 -240 116 -585
178 -805 146z"/>
</g>
</svg>
