<?xml version="1.0" encoding="utf-8"?>
<!-- Generator: Adobe Illustrator 24.0.0, SVG Export Plug-In . SVG Version: 6.00 Build 0)  -->
<svg version="1.1" id="Layer_1" xmlns="http://www.w3.org/2000/svg" xmlns:xlink="http://www.w3.org/1999/xlink" x="0px" y="0px"
	 viewBox="0 0 256 256" style="enable-background:new 0 0 256 256;" xml:space="preserve">
<style type="text/css">
	.st0{fill:#382B73;}
	.st1{fill:#291B4A;}
	.st2{fill:#ED9ABC;}
	.st3{fill:#E54890;}
	.st4{fill:#D3D3D3;}
	.st5{fill:#EBE7F2;}
	.st6{fill:#F9B087;}
	.st7{fill:#FF8639;}
	.st8{fill:#65C1D6;}
	.st9{fill:#149CB2;}
</style>
<g>
	<g>
		<g>
			<g>
				<g>
					<circle class="st0" cx="128" cy="128" r="119.4"/>
				</g>
			</g>
		</g>
	</g>
	<g>
		<g>
			<g>
				<g>
					<path class="st1" d="M103.569,54.556c1.318-0.409,2.055-1.811,1.645-3.129c-0.41-1.319-1.813-2.056-3.129-1.645
						C84.713,55.186,69.114,66.226,58.162,80.87c-11.328,15.147-17.315,33.18-17.315,52.146c0,48.057,39.097,87.153,87.153,87.153
						s87.153-39.097,87.153-87.153S176.057,45.863,128,45.863c-0.919,0-1.84,0.04-2.761,0.069l13.753-13.752
						c0.977-0.977,0.977-2.559,0-3.535s-2.559-0.977-3.535,0l-18.447,18.447c-0.469,0.469-0.732,1.104-0.732,1.768
						s0.264,1.299,0.732,1.768l18.447,18.446c0.488,0.488,1.128,0.732,1.768,0.732s1.279-0.244,1.768-0.732
						c0.977-0.977,0.977-2.56,0-3.535l-14.586-14.585c1.198-0.052,2.398-0.09,3.595-0.09c45.3,0,82.153,36.854,82.153,82.153
						S173.3,215.17,128,215.17s-82.153-36.854-82.153-82.153C45.847,96.826,69.044,65.295,103.569,54.556z"/>
				</g>
			</g>
		</g>
		<g>
			<g>
				<g>
					<path class="st1" d="M117.706,68.183c1.364-0.215,2.296-1.495,2.081-2.858s-1.491-2.291-2.858-2.081
						c-16.44,2.589-31.512,10.992-42.439,23.662c-11.044,12.805-17.126,29.181-17.126,46.111c0,38.949,31.688,70.637,70.637,70.637
						s70.637-31.688,70.637-70.637c0-31.132-19.958-58.246-49.664-67.471c-1.316-0.405-2.719,0.327-3.129,1.646
						c-0.409,1.318,0.328,2.72,1.646,3.129c27.602,8.571,46.146,33.767,46.146,62.695c0,36.192-29.444,65.637-65.637,65.637
						s-65.637-29.444-65.637-65.637C62.363,100.498,85.639,73.231,117.706,68.183z"/>
				</g>
			</g>
		</g>
		<g>
			<g>
				<g>
					<path class="st1" d="M142.148,145.298c0.488,0.488,1.128,0.732,1.768,0.732s1.279-0.244,1.768-0.732l11.53-11.53
						c0.977-0.977,0.977-2.559,0-3.535l-11.53-11.53c-0.977-0.977-2.559-0.977-3.535,0s-0.977,2.559,0,3.535l9.763,9.763
						l-9.763,9.763C141.172,142.739,141.172,144.321,142.148,145.298z"/>
				</g>
			</g>
		</g>
		<g>
			<g>
				<g>
					<path class="st1" d="M113.852,118.702c-0.977-0.977-2.559-0.977-3.535,0l-11.53,11.53c-0.977,0.977-0.977,2.559,0,3.535
						l11.53,11.53c0.488,0.488,1.128,0.732,1.768,0.732s1.279-0.244,1.768-0.732c0.977-0.977,0.977-2.559,0-3.535L104.089,132
						l9.763-9.763C114.828,121.261,114.828,119.679,113.852,118.702z"/>
				</g>
			</g>
		</g>
		<g>
			<g>
				<g>
					<path class="st1" d="M121.904,146.03c0.882,0,1.736-0.467,2.191-1.294l12.702-23.061c0.666-1.209,0.227-2.729-0.983-3.396
						c-1.211-0.667-2.73-0.228-3.396,0.983l-12.702,23.061c-0.666,1.209-0.227,2.729,0.983,3.396
						C121.083,145.931,121.496,146.03,121.904,146.03z"/>
				</g>
			</g>
		</g>
		<g>
			<g>
				<g>
					<path class="st1" d="M172.782,161.098c1.381,0,2.5-1.119,2.5-2.5v-53.195c0-1.381-1.119-2.5-2.5-2.5H83.218
						c-1.381,0-2.5,1.119-2.5,2.5v53.195c0,1.381,1.119,2.5,2.5,2.5H172.782z M85.718,107.902h84.564v48.195H85.718V107.902z"/>
				</g>
			</g>
		</g>
	</g>
	<g>
		<g>
			<g>
				<g>
					<path class="st2" d="M103.569,50.556c1.318-0.409,2.055-1.811,1.645-3.129c-0.41-1.319-1.813-2.056-3.129-1.645
						C84.713,51.186,69.114,62.226,58.162,76.87c-11.328,15.147-17.315,33.18-17.315,52.146c0,48.057,39.097,87.153,87.153,87.153
						s87.153-39.097,87.153-87.153S176.057,41.863,128,41.863c-2.934,0-5.889,0.147-8.784,0.438
						c-1.374,0.138-2.376,1.362-2.238,2.736s1.371,2.386,2.736,2.238c2.73-0.273,5.519-0.412,8.286-0.412
						c45.3,0,82.153,36.854,82.153,82.153S173.3,211.17,128,211.17s-82.153-36.854-82.153-82.153
						C45.847,92.826,69.044,61.295,103.569,50.556z"/>
				</g>
			</g>
		</g>
		<g>
			<g>
				<g>
					<path class="st2" d="M138.991,24.645c-0.977-0.977-2.559-0.977-3.535,0l-18.447,18.447c-0.469,0.469-0.732,1.104-0.732,1.768
						s0.264,1.299,0.732,1.768l18.447,18.446c0.488,0.488,1.128,0.732,1.768,0.732s1.279-0.244,1.768-0.732
						c0.977-0.977,0.977-2.56,0-3.535l-16.68-16.679l16.68-16.68C139.968,27.203,139.968,25.621,138.991,24.645z"/>
				</g>
			</g>
		</g>
		<g>
			<g>
				<g>
					<path class="st4" d="M117.706,64.183c1.364-0.215,2.296-1.495,2.081-2.858c-0.215-1.364-1.491-2.295-2.858-2.081
						c-16.44,2.589-31.512,10.992-42.439,23.662c-11.044,12.805-17.126,29.181-17.126,46.111c0,38.949,31.688,70.637,70.637,70.637
						s70.637-31.688,70.637-70.637c0-31.132-19.958-58.246-49.664-67.471c-1.316-0.405-2.719,0.327-3.129,1.646
						c-0.409,1.318,0.328,2.72,1.646,3.129c27.602,8.571,46.146,33.767,46.146,62.695c0,36.192-29.444,65.637-65.637,65.637
						s-65.637-29.444-65.637-65.637C62.363,96.498,85.639,69.231,117.706,64.183z"/>
				</g>
			</g>
		</g>
		<g>
			<g>
				<g>
					<g>
						<path class="st5" d="M117.706,64.183c1.364-0.215,2.296-1.495,2.081-2.858c-0.194-1.233-1.255-2.112-2.467-2.112
							c-0.129,0-0.26,0.01-0.392,0.031c-16.44,2.589-31.512,10.992-42.439,23.662c-11.044,12.805-17.126,29.181-17.126,46.111
							c0,38.949,31.688,70.637,70.637,70.637s70.637-31.688,70.637-70.637c0-31.132-19.958-58.246-49.664-67.471
							c-0.246-0.076-0.494-0.112-0.739-0.112c-1.066,0-2.057,0.685-2.39,1.758c-0.409,1.318,0.328,2.72,1.646,3.129
							c27.602,8.571,46.146,33.767,46.146,62.695c0,36.192-29.444,65.637-65.637,65.637s-65.637-29.444-65.637-65.637
							C62.363,96.498,85.639,69.231,117.706,64.183z M60.863,129.017c0,37.019,30.117,67.137,67.137,67.137
							s67.137-30.117,67.137-67.137c0-29.59-18.969-55.361-47.202-64.128c-0.526-0.163-0.822-0.725-0.659-1.251
							c0.131-0.421,0.516-0.703,0.958-0.703c0.1,0,0.2,0.015,0.294,0.044c29.074,9.028,48.609,35.567,48.609,66.038
							c0,38.122-31.015,69.137-69.137,69.137c-38.122,0-69.137-31.015-69.137-69.137c0-16.571,5.953-32.599,16.762-45.132
							c10.696-12.401,25.448-20.626,41.535-23.16c0.054-0.008,0.107-0.012,0.16-0.012c0.494,0,0.908,0.355,0.985,0.845
							c0.042,0.263-0.022,0.528-0.179,0.743c-0.157,0.216-0.389,0.358-0.653,0.4C84.671,67.865,60.863,95.755,60.863,129.017z"/>
					</g>
				</g>
			</g>
		</g>
		<g>
			<g>
				<g>
					<g>
						<g>
							<path class="st6" d="M142.148,141.298c0.488,0.488,1.128,0.732,1.768,0.732s1.279-0.244,1.768-0.732l11.53-11.53
								c0.977-0.977,0.977-2.559,0-3.535l-11.53-11.53c-0.977-0.977-2.559-0.977-3.535,0s-0.977,2.559,0,3.535l9.763,9.763
								l-9.763,9.763C141.172,138.739,141.172,140.321,142.148,141.298z"/>
						</g>
					</g>
				</g>
				<g>
					<g>
						<g>
							<path class="st6" d="M113.852,114.702c-0.977-0.977-2.559-0.977-3.535,0l-11.53,11.53c-0.977,0.977-0.977,2.559,0,3.535
								l11.53,11.53c0.488,0.488,1.128,0.732,1.768,0.732s1.279-0.244,1.768-0.732c0.977-0.977,0.977-2.559,0-3.535L104.089,128
								l9.763-9.763C114.828,117.261,114.828,115.679,113.852,114.702z"/>
						</g>
					</g>
				</g>
				<g>
					<g>
						<g>
							<path class="st6" d="M121.904,142.03c0.882,0,1.736-0.467,2.191-1.294l12.702-23.061c0.666-1.209,0.227-2.729-0.983-3.396
								c-1.211-0.668-2.73-0.227-3.396,0.983l-12.702,23.061c-0.666,1.209-0.227,2.729,0.983,3.396
								C121.083,141.931,121.496,142.03,121.904,142.03z"/>
						</g>
					</g>
				</g>
			</g>
			<g>
				<g>
					<g>
						<path class="st6" d="M172.782,157.098c1.381,0,2.5-1.119,2.5-2.5v-53.195c0-1.381-1.119-2.5-2.5-2.5H83.218
							c-1.381,0-2.5,1.119-2.5,2.5v53.195c0,1.381,1.119,2.5,2.5,2.5H172.782z M85.718,103.902h84.564v48.195H85.718V103.902z"/>
					</g>
				</g>
			</g>
		</g>
		<g>
			<g>
				<g>
					<g>
						<path class="st7" d="M142.148,141.298c0.488,0.488,1.128,0.732,1.768,0.732s1.279-0.244,1.768-0.732l11.53-11.53
							c0.977-0.977,0.977-2.559,0-3.535l-11.53-11.53c-0.488-0.488-1.128-0.732-1.768-0.732s-1.279,0.244-1.768,0.732
							c-0.977,0.977-0.977,2.559,0,3.535l9.763,9.763l-9.763,9.763C141.172,138.739,141.172,140.321,142.148,141.298z
							 M143.209,138.823l9.763-9.763c0.586-0.586,0.586-1.535,0-2.121l-9.763-9.763c-0.189-0.189-0.293-0.44-0.293-0.707
							s0.104-0.518,0.293-0.707c0.189-0.189,0.44-0.293,0.707-0.293s0.518,0.104,0.707,0.293l11.53,11.53
							c0.189,0.189,0.293,0.44,0.293,0.707s-0.104,0.518-0.293,0.707l-11.53,11.53c-0.189,0.189-0.44,0.293-0.707,0.293
							s-0.518-0.104-0.707-0.293c-0.189-0.189-0.293-0.44-0.293-0.707S143.02,139.012,143.209,138.823z"/>
					</g>
				</g>
			</g>
			<g>
				<g>
					<g>
						<path class="st7" d="M113.852,114.702c-0.488-0.488-1.128-0.732-1.768-0.732s-1.279,0.244-1.768,0.732l-11.53,11.53
							c-0.977,0.977-0.977,2.559,0,3.535l11.53,11.53c0.488,0.488,1.128,0.732,1.768,0.732s1.279-0.244,1.768-0.732
							c0.977-0.977,0.977-2.559,0-3.535L104.089,128l9.763-9.763C114.828,117.261,114.828,115.679,113.852,114.702z
							 M112.791,117.177l-9.763,9.763c-0.586,0.586-0.586,1.535,0,2.121l9.763,9.763c0.189,0.189,0.293,0.44,0.293,0.707
							s-0.104,0.518-0.293,0.707c-0.189,0.189-0.44,0.293-0.707,0.293s-0.518-0.104-0.707-0.293l-11.53-11.53
							c-0.189-0.189-0.293-0.44-0.293-0.707s0.104-0.518,0.293-0.707l11.53-11.53c0.189-0.189,0.44-0.293,0.707-0.293
							s0.518,0.104,0.707,0.293c0.189,0.189,0.293,0.44,0.293,0.707S112.98,116.988,112.791,117.177z"/>
					</g>
				</g>
			</g>
			<g>
				<g>
					<g>
						<path class="st7" d="M121.904,142.03c0.882,0,1.736-0.467,2.191-1.294l12.702-23.061c0.666-1.209,0.227-2.729-0.983-3.396
							c-0.383-0.211-0.797-0.312-1.205-0.312c-0.882,0-1.736,0.468-2.19,1.295l-12.702,23.061c-0.666,1.209-0.227,2.729,0.983,3.396
							C121.083,141.931,121.496,142.03,121.904,142.03z M121.031,139.048l12.703-23.062c0.175-0.319,0.511-0.518,0.876-0.518
							c0.169,0,0.33,0.042,0.482,0.126c0.234,0.129,0.403,0.341,0.478,0.597c0.074,0.257,0.044,0.527-0.085,0.761l-12.703,23.061
							c-0.175,0.319-0.512,0.517-0.877,0.517c-0.169,0-0.331-0.042-0.481-0.125c-0.234-0.129-0.403-0.341-0.478-0.597
							C120.872,139.552,120.902,139.282,121.031,139.048z"/>
					</g>
				</g>
			</g>
			<g>
				<g>
					<g>
						<path class="st7" d="M172.782,157.098c1.381,0,2.5-1.119,2.5-2.5v-53.195c0-1.381-1.119-2.5-2.5-2.5H83.218
							c-1.381,0-2.5,1.119-2.5,2.5v53.195c0,1.381,1.119,2.5,2.5,2.5H172.782z M82.218,154.598v-53.195c0-0.552,0.449-1,1-1h89.564
							c0.551,0,1,0.448,1,1v53.195c0,0.552-0.449,1-1,1H83.218C82.666,155.598,82.218,155.149,82.218,154.598z"/>
						<path class="st7" d="M85.718,153.598h84.564c0.828,0,1.5-0.672,1.5-1.5v-48.195c0-0.828-0.672-1.5-1.5-1.5H85.718
							c-0.828,0-1.5,0.672-1.5,1.5v48.195C84.218,152.926,84.889,153.598,85.718,153.598z M85.718,103.902h84.564v48.195H85.718
							V103.902z"/>
					</g>
				</g>
			</g>
		</g>
		<g>
			<g>
				<g>
					<path class="st3" d="M103.569,50.556c1.318-0.409,2.055-1.811,1.645-3.129c-0.333-1.072-1.321-1.759-2.385-1.759
						c-0.246,0-0.496,0.037-0.744,0.114C84.713,51.186,69.114,62.226,58.162,76.87c-11.328,15.147-17.315,33.18-17.315,52.146
						c0,48.057,39.097,87.153,87.153,87.153s87.153-39.097,87.153-87.153S176.057,41.863,128,41.863c-0.919,0-1.84,0.04-2.761,0.069
						l13.753-13.752c0.977-0.977,0.977-2.559,0-3.535c-0.488-0.488-1.128-0.732-1.768-0.732s-1.279,0.244-1.768,0.732
						l-18.447,18.447c-0.469,0.469-0.732,1.104-0.732,1.768s0.264,1.299,0.732,1.768l18.447,18.446
						c0.488,0.488,1.128,0.732,1.768,0.732s1.279-0.244,1.768-0.732c0.977-0.977,0.977-2.56,0-3.535l-14.586-14.585
						c1.198-0.052,2.398-0.09,3.595-0.09c45.3,0,82.153,36.854,82.153,82.153S173.3,211.17,128,211.17s-82.153-36.854-82.153-82.153
						C45.847,92.826,69.044,61.295,103.569,50.556z M44.347,129.017c0,46.127,37.527,83.653,83.653,83.653
						s83.653-37.527,83.653-83.653S174.127,45.363,128,45.363c-1.068,0-2.196,0.028-3.659,0.091c-0.594,0.025-1.118,0.4-1.333,0.954
						c-0.216,0.555-0.084,1.184,0.337,1.605l14.587,14.586c0.189,0.188,0.293,0.439,0.293,0.706c0,0.267-0.104,0.518-0.293,0.707
						c-0.189,0.189-0.44,0.293-0.707,0.293s-0.518-0.104-0.707-0.293l-18.447-18.446c-0.189-0.189-0.293-0.44-0.293-0.707
						s0.104-0.518,0.293-0.707l18.447-18.448c0.189-0.189,0.44-0.293,0.707-0.293s0.518,0.104,0.707,0.293
						c0.39,0.39,0.39,1.024,0,1.414l-13.753,13.752c-0.435,0.435-0.56,1.092-0.316,1.656c0.238,0.55,0.78,0.904,1.376,0.904
						c0.016,0,0.031,0,0.047-0.001l0.608-0.02c0.695-0.024,1.413-0.048,2.106-0.048c47.229,0,85.653,38.424,85.653,85.653
						S175.229,214.67,128,214.67c-47.229,0-85.653-38.424-85.653-85.653c0-18.641,5.884-36.362,17.017-51.248
						c10.764-14.393,26.094-25.244,43.169-30.554c0.097-0.031,0.197-0.046,0.296-0.046c0.439,0,0.822,0.283,0.953,0.704
						c0.079,0.255,0.055,0.526-0.07,0.762c-0.124,0.236-0.333,0.41-0.588,0.489C67.967,60.059,44.347,92.166,44.347,129.017z"/>
				</g>
			</g>
		</g>
	</g>
</g>
</svg>
